<?xml version="1.0" standalone="no"?><!DOCTYPE svg PUBLIC "-//W3C//DTD SVG 1.1//EN" "http://www.w3.org/Graphics/SVG/1.1/DTD/svg11.dtd"><svg height="1024" node-id="1" sillyvg="true" template-height="1024" template-width="1630" version="1.1" viewBox="0 0 1630 1024" width="1630" xmlns="http://www.w3.org/2000/svg" xmlns:xlink="http://www.w3.org/1999/xlink"><defs node-id="28"></defs><g node-id="30"><g node-id="31"><g node-id="32"><g node-id="33"><path d="M 1007.83 250.86 L 1030.53 251.12 L 1052.92 251.94 L 1075.01 253.32 L 1096.81 255.24 L 1114.31 257.22 L 1131.52 259.59 L 1148.47 262.36 L 1165.15 265.50 L 1181.57 269.03 L 1198.02 273.03 L 1214.11 277.46 L 1229.88 282.31 L 1245.32 287.57 L 1260.45 293.25 L 1275.47 299.47 L 1290.10 306.14 L 1304.35 313.27 L 1318.24 320.86 L 1331.77 328.91 L 1342.83 336.04 L 1353.59 343.52 L 1364.07 351.35 L 1374.27 359.54 L 1384.20 368.09 L 1393.86 377.02 L 1403.14 386.25 L 1412.12 395.87 L 1420.80 405.91 L 1429.18 416.36 L 1437.27 427.25 L 1445.06 438.58 L 1452.31 450.02 L 1459.24 461.93 L 1465.85 474.33 L 1472.13 487.23 L 1478.08 500.65 L 1483.70 514.61 L 1488.69 528.40 L 1493.33 542.74 L 1497.60 557.66 L 1501.49 573.18 L 1505.00 589.33 L 1508.10 606.12 L 1510.61 622.42 L 1512.71 639.36 L 1514.37 656.98 L 1515.59 675.29 L 1516.34 694.32 L 1516.61 714.10 L 1516.35 740.99 L 1515.60 764.70 L 1514.43 785.50 L 1513.12 801.37 L 1511.57 815.60 L 1509.80 828.31 L 1507.84 839.63 L 1505.34 851.33 L 1502.64 861.63 L 1499.77 870.65 L 1496.76 878.50 L 1493.84 884.94 L 1490.80 890.66 L 1487.67 895.73 L 1484.44 900.21 L 1481.12 904.12 L 1477.37 907.89 L 1473.47 911.19 L 1469.43 914.05 L 1465.22 916.48 L 1460.85 918.52 L 1455.16 920.54 L 1449.13 922.09 L 1442.71 923.14 L 1435.87 923.68 L 1429.12 923.76 L 1421.93 923.46 L 1414.26 922.76 L 1406.10 921.64 L 1395.42 919.75 L 1383.89 917.35 L 1371.48 914.39 L 1352.64 909.53 L 1331.92 903.95 L 1310.56 898.24 L 1287.35 892.33 L 1271.63 888.59 L 1255.09 884.99 L 1237.70 881.54 L 1220.27 878.51 L 1202.01 875.85 L 1182.90 873.60 L 1168.62 872.29 L 1153.86 871.33 L 1138.61 870.73 L 1122.86 870.50 L 1109.47 870.70 L 1094.25 871.27 L 1077.07 872.25 L 1050.74 874.17 L 1020.87 876.73 L 956.14 882.79 L 921.49 886.01 L 884.71 889.26 L 847.32 892.28 L 808.46 895.00 L 782.39 896.55 L 755.99 897.84 L 729.24 898.85 L 702.49 899.52 L 675.72 899.79 L 648.91 899.66 L 622.12 899.06 L 595.59 897.92 L 569.32 896.27 L 549.61 894.62 L 530.21 892.61 L 511.13 890.24 L 492.34 887.52 L 473.52 884.34 L 455.17 880.73 L 437.27 876.70 L 419.81 872.26 L 405.83 868.29 L 392.22 864.00 L 378.99 859.41 L 366.12 854.52 L 353.61 849.34 L 343.01 844.47 L 332.77 839.32 L 322.86 833.87 L 313.27 828.13 L 304.00 822.10 L 292.66 814.08 L 281.78 805.71 L 271.36 796.99 L 261.38 787.92 L 251.72 778.46 L 242.49 768.76 L 233.67 758.82 L 225.26 748.65 L 217.15 738.19 L 209.43 727.62 L 202.11 716.94 L 195.16 706.14 L 186.32 691.46 L 178.14 676.82 L 170.60 662.24 L 163.49 647.44 L 157.01 632.96 L 151.12 618.80 L 145.58 604.47 L 140.62 590.77 L 136.23 577.66 L 130.25 558.17 L 125.45 540.68 L 121.35 523.87 L 118.31 509.71 L 115.86 496.50 L 114.33 486.59 L 113.31 477.88 L 113.04 473.18 L 113.11 459.72 L 113.66 446.32 L 114.68 432.96 L 116.18 419.64 L 118.12 406.36 L 120.44 393.22 L 123.15 380.21 L 126.25 367.32 L 130.94 350.28 L 136.15 333.64 L 141.89 317.40 L 148.16 301.36 L 154.79 285.92 L 161.75 271.05 L 169.18 256.40 L 176.75 242.54 L 184.47 229.44 L 192.62 216.58 L 200.71 204.70 L 208.72 193.76 L 217.15 183.09 L 225.29 173.59 L 233.14 165.18 L 239.40 159.01 L 245.34 153.61 L 250.99 148.91 L 256.37 144.87 L 264.77 139.27 L 273.44 134.16 L 282.39 129.52 L 291.63 125.35 L 301.18 121.65 L 310.84 118.45 L 320.77 115.63 L 330.98 113.22 L 341.49 111.21 L 352.31 109.60 L 365.77 108.17 L 379.63 107.27 L 393.91 106.91 L 408.63 107.10 L 423.21 107.78 L 438.12 108.91 L 453.38 110.49 L 469.00 112.54 L 489.65 115.81 L 510.74 119.72 L 532.28 124.28 L 553.72 129.30 L 575.41 134.77 L 597.36 140.71 L 630.17 150.16 L 663.09 160.21 L 695.90 170.62 L 728.34 181.15 L 791.99 201.93 L 823.09 211.82 L 852.89 220.90 L 872.70 226.65 L 891.70 231.83 L 909.92 236.47 L 928.27 240.71 L 945.60 244.20 L 961.94 246.99 L 974.42 248.71 L 986.20 249.90 L 997.33 250.61 L 1007.83 250.86 Z" fill="#eff0f9" fill-rule="evenodd" group-id="1,2,3,4" id="椭圆形备份-13" node-id="8" stroke="none" target-height="816.84863" target-width="1403.5754" target-x="113.0356" target-y="106.909485"></path></g><path d="M 174.94 522.80 L 176.45 522.85 L 176.45 522.85 L 254.72 527.74 L 254.72 585.29 L 150.75 590.28 L 150.75 546.99 L 150.98 543.67 L 151.61 540.54 L 152.65 537.58 L 154.06 534.77 L 155.78 532.21 L 157.83 529.88 L 160.16 527.84 L 162.71 526.11 L 165.52 524.70 L 168.49 523.66 L 171.62 523.03 L 174.94 522.80 Z" fill="#ffffff" fill-rule="evenodd" group-id="1,2,3" id="矩形" node-id="9" stroke="#555555" stroke-linecap="butt" stroke-width="7.2" target-height="67.47699" target-width="103.97713" target-x="150.74603" target-y="522.7983"></path><path d="M 1185.04 176.56 L 1175.50 220.97 L 1167.40 261.24 L 1160.63 297.65 L 1155.08 330.46 L 1150.65 359.92 L 1147.23 386.27 L 1144.73 409.75 L 1143.05 430.58 L 1142.10 448.98 L 1141.81 465.15 L 1142.09 480.55 L 1142.96 496.94 L 1144.46 514.39 L 1146.64 532.94 L 1149.53 552.67 L 1153.19 573.61 L 1157.67 595.85 L 1163.00 619.43 L 1169.26 644.42 L 1176.48 670.89 L 1184.73 698.90 L 1184.73 698.90 L 450.67 698.90 L 532.79 438.13 L 532.79 213.90 Z" fill="#3681fd" fill-rule="evenodd" group-id="1,2,3" id="矩形" node-id="10" stroke="#333333" stroke-linecap="butt" stroke-width="6.94857" target-height="522.33887" target-width="734.37305" target-x="450.67117" target-y="176.55923"></path><path d="M 373.22 816.85 L 386.24 818.00 L 399.08 818.60 L 411.75 818.63 L 424.27 818.11 L 436.65 817.04 L 449.03 815.44 L 461.26 813.33 L 473.35 810.72 L 485.31 807.61 L 497.15 804.00 L 508.82 799.91 L 520.36 795.37 L 531.77 790.37 L 543.06 784.91 L 554.23 778.97 L 565.13 772.67 L 575.90 765.95 L 586.53 758.81 L 597.04 751.25 L 607.42 743.24 L 617.44 734.99 L 622.35 730.76 L 624.78 728.61 L 629.57 724.28 L 634.28 719.89 L 638.89 715.46 L 646.19 708.16 L 653.12 700.87 L 659.78 693.47 L 665.99 686.19 L 669.63 681.71 L 675.68 673.86 L 681.03 666.36 L 685.73 659.19 L 690.11 651.79 L 693.66 644.96 L 696.46 638.66 L 698.28 633.69 L 699.56 629.17 L 700.37 625.05 L 700.76 621.29 L 700.79 619.82 L 617.41 619.82 L 617.56 615.89 L 617.91 613.08 L 618.50 610.56 L 619.20 608.55 L 619.43 607.97 L 618.77 609.21 L 618.03 610.49 L 615.27 614.88 L 613.01 618.18 L 609.85 622.55 L 606.09 627.44 L 599.18 635.84 L 591.47 644.49 L 583.30 652.97 L 574.49 661.47 L 565.28 669.71 L 555.57 677.75 L 544.90 685.91 L 534.15 693.42 L 523.31 700.30 L 512.36 706.58 L 501.32 712.27 L 491.81 716.63 L 482.26 720.53 L 472.64 723.96 L 462.96 726.94 L 453.20 729.46 L 443.36 731.55 L 433.43 733.16 L 423.42 734.27 L 413.34 734.89 L 403.16 735.02 L 392.87 734.64 L 382.46 733.75 L 376.62 733.04 L 370.92 732.23 L 365.35 731.33 L 359.91 730.32 L 348.90 727.89 L 338.67 725.05 L 329.18 721.84 L 320.38 718.26 L 312.23 714.34 L 304.68 710.09 L 297.70 705.50 L 291.70 700.95 L 286.10 696.07 L 280.88 690.86 L 276.03 685.30 L 271.53 679.40 L 267.38 673.12 L 263.59 666.45 L 260.14 659.36 L 256.87 651.40 L 253.97 642.87 L 251.44 633.72 L 249.30 623.92 L 247.59 613.42 L 246.32 602.17 L 245.52 590.13 L 245.40 587.21 L 162.08 590.22 L 162.90 604.78 L 164.26 618.68 L 166.13 631.97 L 168.51 644.67 L 171.36 656.80 L 174.67 668.41 L 178.45 679.51 L 182.35 689.40 L 186.61 698.87 L 191.24 707.93 L 196.22 716.61 L 201.56 724.91 L 207.25 732.85 L 213.31 740.45 L 219.75 747.72 L 226.54 754.64 L 233.69 761.22 L 241.22 767.47 L 249.14 773.39 L 257.46 778.99 L 266.20 784.26 L 275.37 789.21 L 285.00 793.84 L 295.83 798.42 L 307.21 802.59 L 319.15 806.33 L 331.69 809.65 L 344.86 812.52 L 358.69 814.92 L 373.22 816.85 Z" fill="#3681fd" fill-rule="nonzero" group-id="1,2,3,5" id="路径-25" node-id="11" stroke="#555555" stroke-linecap="butt" stroke-width="7.2" target-height="231.41754" target-width="538.7191" target-x="162.07547" target-y="587.21014"></path><path d="M 254.72 586.06 L 254.72 605.45 L 150.75 608.31 L 150.75 590.53 L 254.72 586.06 Z" fill="#ffffff" fill-rule="evenodd" group-id="1,2,3" id="矩形备份-16" node-id="12" stroke="#555555" stroke-linecap="butt" stroke-width="7.2" target-height="22.252441" target-width="103.97713" target-x="150.74603" target-y="586.05566"></path><path d="M 1258.10 339.83 L 1260.19 340.03 L 1262.11 340.61 L 1263.87 341.54 L 1265.40 342.79 L 1266.67 344.30 L 1267.64 346.04 L 1268.25 347.95 L 1268.48 350.04 L 1268.47 350.65 L 1268.47 350.65 L 1257.17 573.46 L 1256.87 575.47 L 1256.21 577.32 L 1255.22 578.99 L 1253.95 580.43 L 1252.44 581.61 L 1250.72 582.50 L 1248.84 583.05 L 1246.81 583.23 L 1246.81 583.23 L 425.77 576.60 L 423.68 576.37 L 421.77 575.76 L 420.02 574.79 L 418.51 573.52 L 417.27 571.99 L 416.33 570.23 L 415.75 568.31 L 415.55 566.22 L 415.55 566.22 L 426.80 356.89 L 427.11 354.90 L 427.76 353.09 L 428.73 351.43 L 429.97 350.00 L 431.46 348.82 L 433.15 347.93 L 435.00 347.36 L 436.99 347.15 L 436.99 347.15 Z" fill="#ffffff" fill-rule="evenodd" group-id="1,2,3" id="矩形备份-12" node-id="13" stroke="#555555" stroke-linecap="butt" stroke-width="7.2" target-height="243.39801" target-width="852.9313" target-x="415.55344" target-y="339.8344"></path><path d="M 1239.21 103.94 L 1241.31 104.10 L 1243.24 104.65 L 1245.01 105.56 L 1246.56 106.78 L 1247.85 108.26 L 1248.84 109.98 L 1249.48 111.87 L 1249.75 113.95 L 1249.75 113.95 L 1249.75 295.17 L 1249.58 297.04 L 1249.10 298.78 L 1248.32 300.41 L 1247.28 301.86 L 1246.01 303.11 L 1244.53 304.13 L 1242.88 304.88 L 1241.06 305.34 L 1241.06 305.34 L 1156.97 318.57 L 537.15 318.57 L 432.41 313.53 L 430.33 313.22 L 428.45 312.53 L 426.74 311.50 L 425.28 310.17 L 424.10 308.60 L 423.24 306.81 L 422.73 304.87 L 422.62 302.78 L 422.62 302.78 L 433.44 132.38 L 433.75 130.43 L 434.40 128.64 L 435.36 127.02 L 436.58 125.61 L 438.04 124.44 L 439.70 123.55 L 441.51 122.97 L 443.47 122.74 L 443.47 122.74 L 909.69 111.72 Z" fill="#ffffff" fill-rule="evenodd" group-id="1,2,3" id="矩形备份-14" node-id="14" stroke="#555555" stroke-linecap="butt" stroke-width="7.2" target-height="214.63263" target-width="827.1344" target-x="422.61758" target-y="103.93511"></path><path d="M 506.30 447.06 L 503.86 450.05 L 501.48 453.43 L 499.16 457.23 L 497.64 460.23 L 496.40 463.33 L 495.46 466.53 L 494.82 469.80 L 494.49 473.12 L 494.46 476.49 L 494.99 481.42 L 496.11 486.03 L 497.81 490.38 L 500.06 494.48 L 502.76 498.18 L 505.93 501.52 L 509.49 504.43 L 513.37 506.85 L 517.61 508.79 L 522.06 510.16 L 526.73 510.92 L 531.67 511.08 L 534.18 510.85 L 538.25 509.90 L 542.31 508.34 L 546.39 506.14 L 550.23 503.50 L 553.88 500.47 L 557.35 497.02 L 560.53 493.31 L 563.32 489.46 L 565.74 485.49 L 567.80 481.32 L 569.29 477.34 L 570.26 473.51 L 570.78 469.12 L 570.81 465.03 L 570.36 461.20 L 569.46 457.59 L 568.11 454.07 L 566.42 450.82 L 564.39 447.82 L 562.00 445.05 L 559.32 442.55 L 556.42 440.35 L 553.30 438.44 L 549.92 436.81 L 546.41 435.53 L 542.81 434.60 L 539.10 434.02 L 535.26 433.79 L 531.44 433.95 L 527.64 434.51 L 523.85 435.49 L 520.04 436.90 L 516.45 438.69 L 512.98 440.96 L 509.60 443.73 L 506.30 447.06 Z M 564.86 471.19 L 564.21 473.85 L 563.22 476.67 L 561.86 479.69 L 559.41 484.05 L 556.37 488.43 L 552.93 492.57 L 549.17 496.35 L 545.13 499.70 L 541.07 502.37 L 538.22 503.81 L 535.49 504.81 L 532.85 505.42 L 530.55 505.62 L 526.54 505.49 L 522.72 504.85 L 519.07 503.71 L 515.60 502.09 L 512.41 500.08 L 509.47 497.65 L 506.86 494.88 L 504.62 491.80 L 502.76 488.39 L 501.34 484.77 L 500.41 480.93 L 499.97 476.83 L 500.10 472.65 L 500.81 468.55 L 502.07 464.59 L 503.89 460.81 L 506.24 456.96 L 508.59 453.61 L 510.94 450.74 L 513.66 447.97 L 516.45 445.64 L 519.30 443.73 L 522.24 442.20 L 526.39 440.63 L 530.53 439.66 L 534.68 439.28 L 538.86 439.43 L 542.87 440.08 L 546.74 441.22 L 550.44 442.85 L 553.81 444.87 L 556.87 447.31 L 559.57 450.13 L 561.78 453.28 L 563.53 456.78 L 564.48 459.55 L 565.07 462.47 L 565.32 465.58 L 565.19 468.90 L 564.86 471.19 Z" fill="#555555" fill-rule="nonzero" group-id="1,2,3" id="路径-3备份" node-id="15" stroke="none" target-height="77.284454" target-width="76.34897" target-x="494.45822" target-y="433.79224"></path><path d="M 619.16 461.15 L 618.06 464.74 L 617.22 468.63 L 616.64 472.85 L 616.51 476.07 L 616.72 479.25 L 617.30 482.41 L 618.21 485.49 L 619.46 488.50 L 621.08 491.45 L 623.21 494.51 L 625.62 497.29 L 628.31 499.83 L 631.31 502.13 L 635.60 504.75 L 640.21 506.87 L 645.17 508.49 L 650.28 509.57 L 655.50 510.10 L 660.87 510.06 L 666.20 509.44 L 671.44 508.21 L 676.63 506.35 L 679.14 505.13 L 682.96 502.62 L 686.44 499.63 L 689.58 496.10 L 692.32 492.23 L 694.65 488.13 L 696.59 483.76 L 698.11 479.24 L 699.15 474.78 L 699.75 470.37 L 699.87 465.93 L 699.49 461.87 L 698.65 458.15 L 697.35 454.74 L 695.76 451.63 L 693.88 448.82 L 691.70 446.26 L 688.38 443.23 L 684.69 440.65 L 680.59 438.51 L 676.26 436.85 L 671.72 435.64 L 666.94 434.88 L 662.10 434.58 L 657.24 434.73 L 652.35 435.34 L 647.54 436.41 L 642.91 437.92 L 638.45 439.89 L 634.23 442.31 L 630.37 445.18 L 626.85 448.50 L 624.50 451.25 L 622.44 454.27 L 620.66 457.56 L 619.16 461.15 Z M 690.98 458.73 L 691.68 461.88 L 691.96 465.41 L 691.80 469.38 L 691.24 473.33 L 690.30 477.34 L 688.97 481.43 L 687.29 485.39 L 685.33 489.07 L 683.07 492.48 L 680.45 495.61 L 677.66 498.16 L 674.67 500.17 L 672.43 501.25 L 668.33 502.71 L 664.16 503.68 L 659.91 504.16 L 655.62 504.17 L 651.43 503.73 L 647.32 502.84 L 643.33 501.52 L 639.61 499.80 L 636.15 497.68 L 632.98 495.16 L 630.23 492.29 L 627.88 489.04 L 626.03 485.45 L 624.82 481.73 L 624.36 479.18 L 624.19 476.60 L 624.30 474.00 L 624.87 469.84 L 625.67 466.10 L 626.70 462.73 L 628.13 459.37 L 629.85 456.32 L 631.84 453.57 L 634.12 451.09 L 637.55 448.16 L 641.29 445.71 L 645.36 443.72 L 649.64 442.21 L 654.01 441.18 L 658.50 440.62 L 663.02 440.52 L 667.39 440.91 L 671.63 441.75 L 675.73 443.08 L 679.46 444.87 L 682.85 447.11 L 685.14 449.10 L 687.13 451.34 L 688.82 453.86 L 690.24 456.67 L 690.98 458.73 Z" fill="#555555" fill-rule="nonzero" group-id="1,2,3" id="路径-3备份-5" node-id="16" stroke="none" target-height="75.519104" target-width="83.365234" target-x="616.5067" target-y="434.57648"></path><path d="M 1105.56 189.41 L 1104.46 193.00 L 1103.62 196.89 L 1103.04 201.12 L 1102.91 204.33 L 1103.12 207.51 L 1103.70 210.67 L 1104.61 213.75 L 1105.86 216.76 L 1107.48 219.71 L 1109.61 222.77 L 1112.02 225.55 L 1114.71 228.09 L 1117.71 230.39 L 1122.00 233.01 L 1126.61 235.13 L 1131.57 236.75 L 1136.68 237.83 L 1141.90 238.36 L 1147.27 238.32 L 1152.60 237.70 L 1157.84 236.47 L 1163.03 234.61 L 1165.54 233.39 L 1169.36 230.88 L 1172.84 227.89 L 1175.98 224.36 L 1178.72 220.49 L 1181.05 216.39 L 1182.99 212.02 L 1184.51 207.50 L 1185.55 203.04 L 1186.15 198.63 L 1186.27 194.19 L 1185.89 190.13 L 1185.04 186.41 L 1183.75 183.00 L 1182.16 179.89 L 1180.28 177.08 L 1178.10 174.52 L 1174.78 171.49 L 1171.09 168.91 L 1166.99 166.77 L 1162.66 165.11 L 1158.12 163.90 L 1153.34 163.14 L 1148.50 162.84 L 1143.64 162.99 L 1138.75 163.60 L 1133.94 164.67 L 1129.31 166.18 L 1124.85 168.15 L 1120.63 170.57 L 1116.77 173.44 L 1113.25 176.76 L 1110.90 179.51 L 1108.84 182.53 L 1107.06 185.82 L 1105.56 189.41 Z M 1177.38 186.99 L 1178.08 190.14 L 1178.36 193.67 L 1178.20 197.64 L 1177.64 201.59 L 1176.70 205.60 L 1175.37 209.69 L 1173.69 213.65 L 1171.73 217.33 L 1169.47 220.74 L 1166.85 223.87 L 1164.06 226.42 L 1161.07 228.43 L 1158.83 229.51 L 1154.73 230.97 L 1150.56 231.94 L 1146.30 232.42 L 1142.02 232.43 L 1137.83 231.99 L 1133.72 231.10 L 1129.73 229.78 L 1126.01 228.06 L 1122.55 225.94 L 1119.38 223.42 L 1116.63 220.55 L 1114.28 217.30 L 1112.43 213.71 L 1111.22 209.99 L 1110.76 207.44 L 1110.59 204.86 L 1110.70 202.26 L 1111.27 198.10 L 1112.07 194.36 L 1113.10 190.99 L 1114.53 187.63 L 1116.25 184.58 L 1118.24 181.83 L 1120.52 179.35 L 1123.95 176.42 L 1127.69 173.97 L 1131.76 171.98 L 1136.04 170.47 L 1140.41 169.44 L 1144.90 168.88 L 1149.42 168.78 L 1153.79 169.17 L 1158.03 170.01 L 1162.13 171.34 L 1165.86 173.13 L 1169.25 175.37 L 1171.54 177.36 L 1173.53 179.60 L 1175.22 182.12 L 1176.64 184.93 L 1177.38 186.99 Z" fill="#555555" fill-rule="nonzero" group-id="1,2,3" id="路径-3备份-13" node-id="17" stroke="none" target-height="75.51915" target-width="83.365234" target-x="1102.9066" target-y="162.8366"></path><path d="M 1162.62 603.90 L 1260.11 624.65 L 1261.95 625.22 L 1263.58 626.08 L 1265.02 627.21 L 1266.23 628.57 L 1267.18 630.12 L 1267.86 631.83 L 1268.21 633.64 L 1268.23 635.56 L 1268.23 635.56 L 1250.79 849.84 L 1250.44 851.77 L 1249.77 853.54 L 1248.80 855.14 L 1247.56 856.53 L 1246.09 857.67 L 1244.43 858.53 L 1242.63 859.09 L 1240.67 859.30 L 1240.67 859.30 L 425.65 871.08 L 423.56 870.90 L 421.63 870.33 L 419.86 869.40 L 418.33 868.17 L 417.05 866.67 L 416.07 864.93 L 415.45 863.02 L 415.20 860.93 L 415.20 860.93 L 421.48 642.91 L 421.74 640.88 L 422.35 639.03 L 423.32 637.32 L 424.59 635.82 L 426.11 634.61 L 427.91 633.66 L 427.91 633.66 L 480.16 612.54 L 1162.62 603.90 Z" fill="#ffffff" fill-rule="evenodd" group-id="1,2,3" id="矩形备份-13" node-id="18" stroke="#555555" stroke-linecap="butt" stroke-width="7.2" target-height="267.1753" target-width="853.0298" target-x="415.20496" target-y="603.90466"></path><path d="M 479.30 618.41 L 1158.08 610.19 L 1159.80 610.28 L 1161.50 610.58 L 1259.39 634.13 L 1259.39 634.13 L 1253.35 720.25 L 1191.28 704.30 L 1152.27 637.73 L 485.84 670.23 L 465.43 684.93 L 429.68 684.93 L 429.68 641.81 L 479.30 618.41 Z" fill="#f4f4f4" fill-rule="evenodd" group-id="1,2,3" id="矩形备份-13" node-id="19" stroke="none" target-height="110.05493" target-width="829.7163" target-x="429.67737" target-y="610.19073"></path><path d="M 430.12 306.71 L 536.22 312.49 L 1158.72 312.49 L 1161.67 312.17 L 1241.08 294.89 L 1241.08 294.89 L 1241.08 275.44 L 432.00 281.38 L 430.12 306.71 Z" fill="#f4f4f4" fill-rule="evenodd" group-id="1,2,3,6" id="矩形备份-15" node-id="20" stroke="none" target-height="37.040527" target-width="810.9615" target-x="430.12152" target-y="275.445"></path><path d="M 1125.61 299.27 L 1128.86 301.75 L 1131.84 304.48 L 1134.56 307.47 L 1137.04 310.72 L 1313.48 565.59 L 1315.88 569.47 L 1317.83 573.42 L 1319.35 577.42 L 1320.44 581.52 L 1321.15 585.72 L 1321.44 589.88 L 1321.34 594.00 L 1320.84 598.11 L 1319.95 602.15 L 1318.68 606.04 L 1317.04 609.79 L 1315.00 613.42 L 1312.62 616.82 L 1309.88 619.96 L 1306.77 622.86 L 1303.25 625.54 L 1299.58 627.75 L 1295.74 629.56 L 1291.71 630.97 L 1287.57 631.97 L 1283.33 632.54 L 1278.97 632.69 L 934.58 626.83 L 930.10 626.51 L 925.81 625.79 L 921.68 624.66 L 917.70 623.14 L 913.87 621.23 L 910.29 619.02 L 906.94 616.49 L 903.82 613.63 L 900.97 610.50 L 898.44 607.15 L 896.23 603.56 L 894.33 599.72 L 892.81 595.74 L 891.68 591.61 L 890.96 587.31 L 890.65 582.82 L 890.80 578.46 L 891.37 574.22 L 892.37 570.06 L 893.78 566.03 L 895.58 562.19 L 897.79 558.51 L 1065.75 309.51 L 1068.42 305.98 L 1071.32 302.86 L 1074.46 300.12 L 1077.85 297.74 L 1081.47 295.70 L 1085.22 294.05 L 1089.10 292.79 L 1093.14 291.89 L 1097.24 291.39 L 1101.36 291.29 L 1105.50 291.59 L 1109.70 292.29 L 1113.79 293.39 L 1117.79 294.91 L 1121.73 296.86 L 1125.61 299.27 Z M 1112.04 533.70 L 1110.43 533.70 L 1107.05 534.03 L 1103.95 534.89 L 1101.07 536.30 L 1098.47 538.18 L 1096.27 540.44 L 1094.42 543.11 L 1093.05 546.05 L 1092.21 549.23 L 1091.89 552.70 L 1092.21 556.17 L 1093.05 559.35 L 1094.42 562.29 L 1096.27 564.96 L 1098.47 567.22 L 1101.07 569.10 L 1103.95 570.51 L 1107.05 571.38 L 1110.43 571.70 L 1110.43 571.70 L 1112.04 571.70 L 1115.42 571.38 L 1118.52 570.51 L 1121.40 569.10 L 1123.99 567.22 L 1126.20 564.96 L 1128.05 562.29 L 1129.42 559.35 L 1130.26 556.17 L 1130.58 552.70 L 1130.26 549.23 L 1129.42 546.05 L 1128.05 543.11 L 1126.20 540.44 L 1123.99 538.18 L 1121.40 536.30 L 1118.52 534.89 L 1115.42 534.03 L 1112.04 533.70 L 1112.04 533.70 Z M 1138.57 393.30 L 1083.66 393.30 L 1082.71 393.37 L 1081.04 393.87 L 1079.68 394.70 L 1078.56 395.87 L 1077.77 397.29 L 1077.38 398.85 L 1077.40 400.58 L 1077.40 400.58 L 1093.39 505.95 L 1093.91 508.22 L 1094.73 510.28 L 1095.84 512.16 L 1097.24 513.84 L 1098.84 515.26 L 1100.66 516.42 L 1102.64 517.29 L 1104.75 517.82 L 1107.01 518.01 L 1107.01 518.01 L 1114.66 518.01 L 1116.92 517.82 L 1119.02 517.29 L 1121.00 516.42 L 1122.82 515.26 L 1124.42 513.84 L 1125.82 512.16 L 1126.94 510.28 L 1127.75 508.22 L 1128.27 505.95 L 1128.27 505.95 L 1144.83 400.62 L 1144.91 399.63 L 1144.66 397.91 L 1144.05 396.44 L 1143.05 395.15 L 1141.77 394.16 L 1140.29 393.54 L 1138.57 393.30 L 1138.57 393.30 Z" fill="#f62234" fill-rule="nonzero" group-id="1,2,3" id="形状结合" node-id="21" stroke="none" target-height="341.39948" target-width="430.7943" target-x="890.6492" target-y="291.2898"></path><path d="M 980.18 729.80 L 977.46 733.14 L 974.80 736.91 L 972.21 741.15 L 970.51 744.49 L 969.13 747.95 L 968.09 751.52 L 967.37 755.17 L 967.00 758.87 L 966.96 762.63 L 967.35 766.79 L 968.10 770.74 L 969.22 774.52 L 970.71 778.13 L 972.54 781.60 L 974.66 784.82 L 977.06 787.80 L 979.76 790.55 L 982.71 793.04 L 985.85 795.22 L 989.21 797.09 L 992.79 798.66 L 996.50 799.87 L 1000.33 800.70 L 1004.31 801.15 L 1008.47 801.21 L 1011.27 800.96 L 1014.92 800.17 L 1018.56 798.93 L 1022.23 797.22 L 1025.74 795.17 L 1029.16 792.79 L 1032.49 790.05 L 1037.12 785.54 L 1041.29 780.59 L 1044.94 775.31 L 1047.88 769.97 L 1049.50 766.27 L 1050.70 762.72 L 1051.52 759.30 L 1052.11 754.41 L 1052.13 749.85 L 1051.63 745.58 L 1050.62 741.55 L 1049.12 737.62 L 1047.24 734.00 L 1044.97 730.65 L 1042.31 727.56 L 1039.32 724.77 L 1036.09 722.32 L 1032.60 720.19 L 1028.83 718.37 L 1024.92 716.94 L 1020.90 715.90 L 1016.76 715.25 L 1012.47 715.00 L 1008.21 715.18 L 1003.98 715.81 L 999.75 716.90 L 995.50 718.47 L 991.50 720.47 L 987.62 722.99 L 983.85 726.09 L 980.18 729.80 Z M 1045.50 756.72 L 1044.77 759.69 L 1043.67 762.84 L 1042.15 766.20 L 1039.41 771.06 L 1036.03 775.95 L 1032.19 780.57 L 1028.00 784.79 L 1025.00 787.37 L 1021.99 789.60 L 1018.96 791.50 L 1015.78 793.11 L 1012.73 794.23 L 1009.79 794.90 L 1007.22 795.13 L 1002.75 794.98 L 998.50 794.27 L 994.42 792.99 L 990.55 791.19 L 986.99 788.95 L 983.71 786.24 L 980.79 783.14 L 978.30 779.71 L 976.22 775.91 L 974.65 771.87 L 973.61 767.59 L 973.11 763.02 L 973.14 759.89 L 973.45 756.81 L 974.05 753.77 L 974.92 750.80 L 976.06 747.93 L 977.48 745.15 L 980.11 740.84 L 982.73 737.11 L 985.35 733.90 L 988.39 730.82 L 991.49 728.22 L 994.68 726.09 L 997.95 724.38 L 1001.43 723.00 L 1004.89 722.01 L 1008.36 721.38 L 1011.84 721.12 L 1016.49 721.29 L 1020.97 722.01 L 1025.29 723.29 L 1029.41 725.10 L 1033.17 727.36 L 1036.59 730.08 L 1038.89 732.41 L 1040.89 734.94 L 1042.60 737.68 L 1044.02 740.64 L 1045.07 743.73 L 1045.73 746.99 L 1046.01 750.46 L 1045.87 754.17 L 1045.50 756.72 Z" fill="#555555" fill-rule="nonzero" group-id="1,2,3" id="路径-3备份-7" node-id="22" stroke="none" target-height="86.21179" target-width="85.168274" target-x="966.96405" target-y="715.00226"></path><path d="M 1105.56 746.82 L 1104.46 750.42 L 1103.62 754.31 L 1103.04 758.53 L 1102.91 761.75 L 1103.12 764.93 L 1103.70 768.09 L 1104.61 771.17 L 1105.86 774.18 L 1107.48 777.13 L 1109.61 780.18 L 1112.02 782.97 L 1114.71 785.51 L 1117.71 787.81 L 1122.00 790.42 L 1126.61 792.54 L 1131.57 794.17 L 1136.68 795.25 L 1141.90 795.77 L 1147.27 795.73 L 1152.60 795.11 L 1157.84 793.88 L 1163.03 792.02 L 1165.54 790.81 L 1169.36 788.30 L 1172.84 785.30 L 1175.98 781.78 L 1178.72 777.91 L 1181.05 773.80 L 1182.99 769.44 L 1184.51 764.91 L 1185.55 760.45 L 1186.15 756.04 L 1186.27 751.60 L 1185.89 747.55 L 1185.04 743.83 L 1183.75 740.41 L 1182.16 737.31 L 1180.28 734.49 L 1178.10 731.94 L 1174.78 728.90 L 1171.09 726.32 L 1166.99 724.18 L 1162.66 722.53 L 1158.12 721.31 L 1153.34 720.55 L 1148.50 720.25 L 1143.64 720.41 L 1138.75 721.02 L 1133.94 722.08 L 1129.31 723.60 L 1124.85 725.56 L 1120.63 727.99 L 1116.77 730.85 L 1113.25 734.17 L 1110.90 736.93 L 1108.84 739.94 L 1107.06 743.23 L 1105.56 746.82 Z M 1177.38 744.40 L 1178.08 747.55 L 1178.36 751.08 L 1178.20 755.06 L 1177.64 759.00 L 1176.70 763.01 L 1175.37 767.10 L 1173.69 771.06 L 1171.73 774.74 L 1169.47 778.16 L 1166.85 781.29 L 1164.06 783.83 L 1161.07 785.84 L 1158.83 786.93 L 1154.73 788.39 L 1150.56 789.35 L 1146.30 789.83 L 1142.02 789.84 L 1137.83 789.40 L 1133.72 788.52 L 1129.73 787.19 L 1126.01 785.47 L 1122.55 783.35 L 1119.38 780.83 L 1116.63 777.96 L 1114.28 774.72 L 1112.43 771.12 L 1111.22 767.41 L 1110.76 764.85 L 1110.59 762.28 L 1110.70 759.68 L 1111.27 755.51 L 1112.07 751.77 L 1113.10 748.41 L 1114.53 745.04 L 1116.25 742.00 L 1118.24 739.25 L 1120.52 736.77 L 1123.95 733.83 L 1127.69 731.38 L 1131.76 729.40 L 1136.04 727.89 L 1140.41 726.86 L 1144.90 726.29 L 1149.42 726.20 L 1153.79 726.58 L 1158.03 727.42 L 1162.13 728.76 L 1165.86 730.54 L 1169.25 732.78 L 1171.54 734.77 L 1173.53 737.02 L 1175.22 739.53 L 1176.64 742.34 L 1177.38 744.40 Z" fill="#555555" fill-rule="nonzero" group-id="1,2,3" id="路径-3备份-8" node-id="23" stroke="none" target-height="75.519165" target-width="83.365234" target-x="1102.9065" target-y="720.2516"></path><path d="M 776.30 172.69 L 771.52 192.49 L 810.93 236.29 L 753.28 249.66 L 604.24 247.35 L 475.72 244.83 L 473.63 244.57 L 471.72 243.94 L 469.99 242.95 L 468.49 241.67 L 467.27 240.12 L 466.35 238.35 L 465.79 236.42 L 465.62 234.33 L 465.68 233.46 L 465.68 233.46 L 471.06 181.92 L 471.45 180.00 L 472.15 178.26 L 473.15 176.69 L 474.41 175.34 L 475.89 174.23 L 477.56 173.40 L 479.36 172.87 L 481.30 172.69 L 481.30 172.69 L 776.30 172.69 Z" fill="#ffffff" fill-rule="evenodd" group-id="1,2,3" id="形状结合" node-id="24" stroke="#555555" stroke-linecap="butt" stroke-width="7.2" target-height="76.96939" target-width="345.30392" target-x="465.62204" target-y="172.69"></path><path d="M 184.59 522.18 L 177.64 587.21" fill="none" group-id="1,2,3" id="路径-26" node-id="25" stroke="#555555" stroke-linecap="butt" stroke-width="7.2" target-height="65.02606" target-width="6.9485626" target-x="177.64497" target-y="522.1841"></path><path d="M 215.08 525.93 L 225.75 586.94" fill="none" group-id="1,2,3" id="路径-27" node-id="26" stroke="#555555" stroke-linecap="butt" stroke-width="7.2" target-height="61.01294" target-width="10.672119" target-x="215.07831" target-y="525.927"></path></g></g></g></svg>