<svg xmlns="http://www.w3.org/2000/svg" width="75.64" height="48.996" viewBox="0 0 75.64 48.996"><defs><style>.a{}.b{}</style></defs><g transform="translate(0 -0.001)"><path class="a" d="M72.094,160.6H49l-5.133-5.133A6.374,6.374,0,0,0,39.43,153.6H7a7.02,7.02,0,0,0-7,7v35a7.02,7.02,0,0,0,7,7H57.978a7.047,7.047,0,0,0,6.649-4.783l10.849-32.547a3.56,3.56,0,0,0-3.383-4.666ZM3.5,160.6A3.437,3.437,0,0,1,7,157.1H39.43a3.044,3.044,0,0,1,1.983.817L44.1,160.6H24.848a6.546,6.546,0,0,0-5.716,3.5,6.41,6.41,0,0,1-5.716,3.5H3.5Zm57.745,36.047a3.36,3.36,0,0,1-3.266,2.45H7a3.437,3.437,0,0,1-3.5-3.5V171.1H13.532a9.672,9.672,0,0,0,8.749-5.483,2.77,2.77,0,0,1,2.566-1.517H72.094L61.245,196.646Z" transform="translate(0 -153.599)"/><path class="a" d="M722.05,368.9a5.25,5.25,0,1,0-5.25-5.25A5.228,5.228,0,0,0,722.05,368.9Zm0-7a1.75,1.75,0,1,1-1.75,1.75A1.794,1.794,0,0,1,722.05,361.9Z" transform="translate(-667.804 -344.4)"/><path class="b" d="M61.232,215.3a6.546,6.546,0,0,0,5.716-3.5,6.41,6.41,0,0,1,5.716-3.5H91.8l-2.683-2.683a3.354,3.354,0,0,0-2.1-.817H54.7a3.437,3.437,0,0,0-3.5,3.5v7Z" transform="translate(-47.7 -201.299)"/><path class="b" d="M770.893,412.493m-2.893,0a2.893,2.893,0,1,0,2.893-2.893A2.893,2.893,0,0,0,768,412.493Z" transform="translate(-716.647 -393.244)"/></g></svg>