        <svg t="1674695519400" id="all-pause" viewBox="0 0 1024 1024" version="1.1" xmlns="http://www.w3.org/2000/svg"
            p-id="977" width="200" height="200">
            <path 
                d="M512 65C264.6 65 64 265.6 64 513s200.6 448 448 448 448-200.6 448-448S759.4 65 512 65zm0 820c-205.4 0-372-166.6-372-372s166.6-372 372-372 372 166.6 372 372-166.6 372-372 372z" />

            <path
                d="M432.457768 322.068548c-16.598379 0-29.997071 13.398692-29.997071 29.997071v319.968753c0 16.598379 13.398692 29.997071 29.997071 29.99707s29.997071-13.398692 29.99707-29.99707v-319.968753c0-16.498389-13.398692-29.997071-29.99707-29.997071zM592.442144 322.068548c-16.598379 0-29.997071 13.398692-29.99707 29.997071v319.968753c0 16.598379 13.398692 29.997071 29.99707 29.99707s29.997071-13.398692 29.997071-29.99707v-319.968753c0-16.498389-13.398692-29.997071-29.997071-29.997071z"
                 p-id="979"></path>
        </svg>